<svg width="256" height="235" viewBox="0 0 256 235" fill="none" xmlns="http://www.w3.org/2000/svg">
<path d="M25.5996 0C25.5996 5.91006 25.6002 5.99867 25.6006 6H102.4C105.13 6.00009 106.932 6.98595 108.502 8.6748C110.279 10.5872 111.73 13.3993 113.164 16.9404C114.395 19.9782 115.918 24.4729 117.43 27.4805C118.826 30.2579 121.884 35.375 128 35.375H230.399L230.4 29.375V35.375C240.418 35.3752 250 45.106 250 58.75V205.625C250 219.269 240.418 229 230.4 229H25.5996C15.5829 229 6.00183 219.271 6 205.629L6.12793 29.3789V29.375C6.12793 15.6896 15.6179 6.00025 25.5996 6V0Z" fill="#00BC8C" stroke="#244321" stroke-width="12"/>
</svg>
